<svg xmlns="http://www.w3.org/2000/svg" xmlns:xlink="http://www.w3.org/1999/xlink" zoomAndPan="magnify" preserveAspectRatio="xMidYMid meet" version="1.0" viewBox="77.8 158.24 206.45 58.52"><defs><g/><clipPath id="71389ce86c"><path d="M 77.800781 158.238281 L 166.023438 158.238281 L 166.023438 216.761719 L 77.800781 216.761719 Z M 77.800781 158.238281 " clip-rule="nonzero"/></clipPath></defs><g clip-path="url(#71389ce86c)"><path fill="#ffffff" d="M 77.800781 158.238281 L 166.046875 158.238281 L 166.046875 216.761719 L 77.800781 216.761719 Z M 77.800781 158.238281 " fill-opacity="1" fill-rule="nonzero"/></g><g fill="#1e1e1e" fill-opacity="1"><g transform="translate(94.522953, 196.618259)"><g><path d="M 6.601562 0 L 11.011719 0 L 15.476562 -12.722656 L 19.941406 0 L 24.324219 0 L 30.671875 -19.660156 L 25.953125 -19.660156 L 24.070312 -13.679688 L 21.964844 -7.132812 L 19.6875 -13.679688 L 17.582031 -19.660156 L 13.339844 -19.660156 L 11.234375 -13.679688 L 8.988281 -7.21875 L 6.910156 -13.679688 L 5.027344 -19.660156 L 0.28125 -19.660156 Z M 6.601562 0 "/></g></g></g><g fill="#1e1e1e" fill-opacity="1"><g transform="translate(127.599792, 196.618259)"><g><path d="M 2.359375 0 L 10.140625 0 C 16.347656 0 20.503906 -3.960938 20.503906 -9.832031 C 20.503906 -15.671875 16.347656 -19.660156 10.140625 -19.660156 L 2.359375 -19.660156 Z M 6.824219 -4.101562 L 6.824219 -15.558594 L 10 -15.558594 C 13.539062 -15.558594 15.925781 -13.285156 15.925781 -9.832031 C 15.925781 -6.375 13.539062 -4.101562 10.054688 -4.101562 Z M 6.824219 -4.101562 "/></g></g></g><g fill="#ffffff" fill-opacity="1"><g transform="translate(178.304142, 196.499987)"><g><path d="M 11.460938 0.421875 C 18.230469 0.421875 22.46875 -4.492188 21.851562 -11.402344 L 10.476562 -11.402344 L 10.476562 -7.414062 L 15.898438 -7.414062 C 15.335938 -5.757812 13.761719 -4.632812 11.515625 -4.632812 C 8.371094 -4.632812 6.542969 -6.851562 6.542969 -9.832031 C 6.542969 -12.921875 8.539062 -15.027344 11.460938 -15.027344 C 13.199219 -15.027344 14.691406 -14.269531 15.449219 -13.03125 L 21.488281 -13.03125 C 20.335938 -17.328125 16.347656 -20.082031 11.375 -20.082031 C 5.195312 -20.082031 0.953125 -15.871094 0.953125 -9.832031 C 0.953125 -3.765625 5.222656 0.421875 11.460938 0.421875 Z M 11.460938 0.421875 "/></g></g></g><g fill="#ffffff" fill-opacity="1"><g transform="translate(201.10354, 196.499987)"><g><path d="M 2.078125 0 L 7.753906 0 L 7.753906 -5.589844 L 9.886719 -5.589844 L 12.695312 0 L 19.128906 0 L 15.503906 -6.628906 C 17.582031 -7.78125 18.761719 -9.859375 18.761719 -12.609375 C 18.761719 -16.964844 15.8125 -19.660156 11.039062 -19.660156 L 2.078125 -19.660156 Z M 7.640625 -10.113281 L 7.640625 -15.027344 L 10.28125 -15.027344 C 12.078125 -15.027344 13.0625 -14.15625 13.0625 -12.582031 C 13.0625 -11.011719 12.078125 -10.113281 10.28125 -10.113281 Z M 7.640625 -10.113281 "/></g></g></g><g fill="#ffffff" fill-opacity="1"><g transform="translate(221.319756, 196.499987)"><g><path d="M 11.65625 0.421875 C 17.917969 0.421875 22.359375 -3.820312 22.359375 -9.832031 C 22.359375 -15.839844 17.917969 -20.082031 11.65625 -20.082031 C 5.394531 -20.082031 0.953125 -15.839844 0.953125 -9.832031 C 0.953125 -3.820312 5.394531 0.421875 11.65625 0.421875 Z M 6.714844 -9.832031 C 6.714844 -12.78125 8.761719 -14.832031 11.65625 -14.832031 C 14.578125 -14.832031 16.601562 -12.78125 16.601562 -9.832031 C 16.601562 -6.882812 14.578125 -4.832031 11.65625 -4.832031 C 8.761719 -4.832031 6.714844 -6.882812 6.714844 -9.832031 Z M 6.714844 -9.832031 "/></g></g></g><g fill="#ffffff" fill-opacity="1"><g transform="translate(244.652644, 196.499987)"><g><path d="M 10.53125 0.421875 C 15.839844 0.421875 19.128906 -2.808594 19.128906 -8.089844 L 19.128906 -19.660156 L 13.480469 -19.660156 L 13.480469 -8.453125 C 13.480469 -6.125 12.5 -4.886719 10.53125 -4.886719 C 8.566406 -4.886719 7.582031 -6.125 7.582031 -8.453125 L 7.582031 -19.660156 L 1.910156 -19.660156 L 1.910156 -8.089844 C 1.910156 -2.808594 5.222656 0.421875 10.53125 0.421875 Z M 10.53125 0.421875 "/></g></g></g><g fill="#ffffff" fill-opacity="1"><g transform="translate(265.711202, 196.499987)"><g><path d="M 2.078125 0 L 7.753906 0 L 7.753906 -4.859375 L 10.363281 -4.859375 C 15.363281 -4.859375 18.539062 -7.753906 18.539062 -12.273438 C 18.539062 -16.796875 15.363281 -19.660156 10.363281 -19.660156 L 2.078125 -19.660156 Z M 7.695312 -9.605469 L 7.695312 -14.886719 L 9.832031 -14.886719 C 11.710938 -14.886719 12.808594 -13.875 12.808594 -12.246094 C 12.808594 -10.589844 11.710938 -9.605469 9.832031 -9.605469 Z M 7.695312 -9.605469 "/></g></g></g></svg>